<?xml version="1.0" encoding="utf-8"?>
<!-- Generator: Adobe Illustrator 22.1.0, SVG Export Plug-In . SVG Version: 6.00 Build 0)  -->
<svg version="1.1" id="Layer_1" xmlns="http://www.w3.org/2000/svg" xmlns:xlink="http://www.w3.org/1999/xlink" x="0px" y="0px"
	 viewBox="0 0 68 68" style="enable-background:new 0 0 68 68;" xml:space="preserve">
<style type="text/css">
	.st0{fill:#0088A9;}
</style>
<g>
	<path class="st0" d="M68,5.8c0,18.8,0,37.5,0,56.3c0,0.1-0.1,0.3-0.1,0.4c-0.6,2.6-2.2,4.3-4.6,5.1c-0.3,0.1-0.7,0.2-1.1,0.3
		c-18.8,0-37.5,0-56.3,0c-0.1,0-0.3-0.1-0.4-0.1C2.3,67.2,0,64.5,0,61.3C0,43.1,0,25,0,6.8C0,3,3,0,6.8,0C25,0,43.1,0,61.3,0
		c3.2,0,5.9,2.3,6.6,5.4C67.9,5.6,68,5.7,68,5.8z M34.1,61.4c7.7,0,15.3,0,23,0c2.7,0,4.2-1.6,4.2-4.2c0-15.3,0-30.7,0-46
		c0-2.6-1.6-4.2-4.2-4.2c-15.3,0-30.6,0-45.9,0c-2.7,0-4.3,1.5-4.3,4.3c0,15.3,0,30.6,0,45.9c0,2.6,1.6,4.2,4.2,4.2
		C18.8,61.4,26.4,61.4,34.1,61.4z"/>
</g>
<g>
	<path class="st0" d="M30.3,32.9c1.2,0.6,2.3,1.1,3.1,2.2c1.2,1.7,1.3,3.6,0.9,5.6c-0.5,2.1-1.9,3.4-3.8,4.2c-1.3,0.6-2.6,0.8-4,0.8
		c-3.7,0.1-7.5,0-11.2,0c-0.1,0-0.3,0-0.5,0c0-7.8,0-15.6,0-23.4c0.2,0,0.4-0.1,0.6-0.1c3.6,0,7.3,0,10.9,0c1.3,0,2.6,0.2,3.9,0.6
		c2,0.7,3.4,2.9,3.1,5.1c-0.1,0.6,0,1.3-0.2,1.9c-0.4,1.2-1,2.2-2.3,2.7C30.7,32.6,30.5,32.8,30.3,32.9z M19.9,35.2
		c0,2.1,0,4.2,0,6.2c0,0.1,0.4,0.4,0.5,0.4c2.1,0,4.2,0,6.3-0.1c2.9-0.2,3.1-3.4,2.1-5.1c-0.5-0.8-1.3-1.2-2.2-1.3
		c-1.6-0.1-3.3-0.1-5-0.1C21.1,35.2,20.5,35.2,19.9,35.2z M19.9,31.7c0.4,0,0.8,0,1.1,0c1.4,0,2.9,0,4.3,0c2,0,3-1,3.1-2.5
		c0.1-1.6-0.5-2.8-2.2-2.9c-1.9-0.2-3.9-0.1-5.8-0.2c-0.4,0-0.6,0.1-0.6,0.6C19.9,28.4,19.9,30.1,19.9,31.7z"/>
	<path class="st0" d="M53.1,37.8c-3.8,0-7.5,0-11.2,0c-0.5,2.1,0.9,3.8,3.1,4.1c1.6,0.2,2.8-0.3,3.8-1.5c0.2-0.3,0.5-0.4,0.9-0.4
		c1,0,2,0,3.1,0c-0.3,1.2-0.8,2.1-1.6,3c-2.7,2.7-5.8,2.7-9.1,1.5c-2-0.7-3.5-2.2-4.1-4.3c-1-3.3-0.6-6.3,1.6-9
		c1.5-1.8,3.6-2.5,5.9-2.4c1.1,0,2.2,0.1,3.2,0.6c1.8,0.8,2.9,2.1,3.6,4C52.9,34.6,53,36.1,53.1,37.8z M48.7,35.1
		c0-1.9-1.1-3.3-3.1-3.4c-2-0.1-3.9,1-3.8,3.4C44.1,35.1,46.4,35.1,48.7,35.1z"/>
	<path class="st0" d="M40.9,24.5c2.9,0,5.8,0,8.7,0c0,0.6,0,1.3,0,2c-2.9,0-5.8,0-8.7,0C40.9,25.8,40.9,25.2,40.9,24.5z"/>
</g>
</svg>
