<?xml version="1.0" encoding="utf-8"?>
<!-- Generator: Adobe Illustrator 22.1.0, SVG Export Plug-In . SVG Version: 6.00 Build 0)  -->
<svg version="1.1" id="Layer_1" xmlns="http://www.w3.org/2000/svg" xmlns:xlink="http://www.w3.org/1999/xlink" x="0px" y="0px"
	 viewBox="0 0 68 68" style="enable-background:new 0 0 68 68;" xml:space="preserve">
<style type="text/css">
	.st0{fill:#0088A9;}
</style>
<g>
	<path class="st0" d="M34,0c4.6,0,9.1,0,13.7,0c10.7,0.1,19.5,8,20,18.7c0.5,10.3,0.4,20.7,0,31c-0.4,10-9.3,18.1-19.3,18.2
		c-9.6,0.1-19.2,0.1-28.9,0C9.1,67.7,0.2,58.7,0.1,48.3C0,38.7,0,29.2,0.1,19.6C0.2,8.8,9.3,0.2,20.3,0C24.9,0,29.4,0,34,0z
		 M33.7,65c0,0,0,0.1,0,0.1c4.6,0,9.2,0.1,13.9,0c9.5-0.2,17.2-7.5,17.4-16.6c0.2-9.6,0.2-19.3,0-28.9c-0.2-8.9-7.7-16.4-16.6-16.6
		c-9.5-0.2-19.1-0.2-28.7,0C11,3.1,3.4,10.2,3.1,18.9C2.8,28.9,2.8,39,3.1,49.1c0.3,8.4,7.3,15.3,15.7,15.8
		C23.7,65.2,28.7,65,33.7,65z"/>
	<path class="st0" d="M33.9,52.3c-2.4,0-4.8,0-7.2,0c-6.1-0.1-10.9-4.9-11-11c-0.1-4.9-0.1-9.8,0-14.6c0.1-5.8,4.3-10.6,10.1-10.9
		c5.4-0.3,10.8-0.3,16.1,0c6,0.3,10.2,4.7,10.4,10.8c0.2,5,0.2,10,0,15c-0.3,6.4-5.1,10.8-11.6,10.9C38.4,52.4,36.2,52.3,33.9,52.3z
		 M34,18.4c-2.2,0-4.4,0-6.6,0c-5.3,0-8.9,3.5-8.9,8.7c-0.1,4.6-0.1,9.1,0,13.7c0.1,4.9,3.4,8.5,8.2,8.7c4.9,0.2,9.7,0.2,14.6,0
		c5-0.2,8.2-3.8,8.2-8.8c0-4.5,0-9,0-13.5c0-5.2-3.5-8.7-8.7-8.8C38.5,18.4,36.3,18.4,34,18.4z"/>
	<path class="st0" d="M34,43.2c-5.2,0-9.3-4-9.3-9.2c0-5.2,4.1-9.4,9.2-9.4c5.1-0.1,9.4,4.2,9.4,9.3C43.3,39,39.2,43.2,34,43.2z
		 M40.4,33.9c0-3.6-2.9-6.4-6.4-6.3c-3.5,0-6.4,2.9-6.4,6.4c0,3.5,3.1,6.5,6.6,6.5C37.6,40.4,40.4,37.4,40.4,33.9z"/>
	<path class="st0" d="M44.2,21.2c1.5,0.1,2.4,0.9,2.5,2.3c0.1,1.4-0.8,2.4-2.3,2.5c-1.4,0.1-2.6-1-2.6-2.4
		C41.9,22.2,42.8,21.5,44.2,21.2z"/>
</g>
</svg>
