<?xml version="1.0" encoding="utf-8"?>
<!-- Generator: Adobe Illustrator 22.1.0, SVG Export Plug-In . SVG Version: 6.00 Build 0)  -->
<svg version="1.1" id="Layer_1" xmlns="http://www.w3.org/2000/svg" xmlns:xlink="http://www.w3.org/1999/xlink" x="0px" y="0px"
	 viewBox="0 0 68 68" style="enable-background:new 0 0 68 68;" xml:space="preserve">
<style type="text/css">
	.st0{fill:#0088A9;}
</style>
<g>
	<path class="st0" d="M68,5.8c0,18.8,0,37.5,0,56.3c0,0.1-0.1,0.3-0.1,0.4c-0.6,2.6-2.2,4.3-4.6,5.1c-0.3,0.1-0.7,0.2-1.1,0.3
		c-18.8,0-37.5,0-56.3,0c-0.1,0-0.3-0.1-0.4-0.1C2.3,67.2,0,64.5,0,61.3C0,43.1,0,25,0,6.8C0,3,3,0,6.8,0C25,0,43.1,0,61.3,0
		c3.2,0,5.9,2.3,6.6,5.4C67.9,5.6,68,5.7,68,5.8z M34.1,61.4c7.7,0,15.3,0,23,0c2.7,0,4.2-1.6,4.2-4.2c0-15.3,0-30.7,0-46
		c0-2.6-1.6-4.2-4.2-4.2C41.8,7,26.5,7,11.2,7c-2.7,0-4.3,1.5-4.3,4.3c0,15.3,0,30.6,0,45.9c0,2.6,1.6,4.2,4.2,4.2
		C18.8,61.4,26.4,61.4,34.1,61.4z"/>
	<path class="st0" d="M36.1,53.3c-2.7,0-5.3,0-8,0c0-8.6,0-17.2,0-25.9c2.6,0,5.1,0,7.6,0c0,1.1,0,2.2,0,3.4
		c0.1-0.1,0.2-0.2,0.2-0.2c1.8-2.5,4.2-3.9,7.4-3.8c1.1,0,2.1,0,3.2,0.2c3.4,0.7,5.7,3.3,6.4,7c0.1,0.9,0.2,1.8,0.2,2.6
		c0,5.4,0,10.8,0.1,16.2c0,0.2,0,0.3,0,0.5c-2.7,0-5.3,0-8.1,0c0-0.3,0-0.6,0-0.8c0-4.4,0-8.9,0-13.3c0-0.8-0.1-1.6-0.3-2.4
		c-0.4-1.6-1.5-2.6-3.1-2.9c-1.8-0.3-3.4,0.2-4.5,1.7c-0.8,1-1,2.2-1,3.5c0,4.5,0,8.9,0,13.4C36.1,52.7,36.1,53,36.1,53.3z"/>
	<path class="st0" d="M23,53.2c-2.7,0-5.3,0-8,0c0-8.6,0-17.1,0-25.7c2.6,0,5.3,0,8,0C23,36.1,23,44.6,23,53.2z"/>
	<path class="st0" d="M14.3,19.1c0-2.6,2.1-4.7,4.7-4.7s4.7,2.2,4.7,4.7c0,2.6-2.1,4.7-4.8,4.7C16.4,23.8,14.3,21.7,14.3,19.1z"/>
</g>
</svg>
