<?xml version="1.0" encoding="utf-8"?>
<!-- Generator: Adobe Illustrator 22.1.0, SVG Export Plug-In . SVG Version: 6.00 Build 0)  -->
<svg version="1.1" id="Layer_1" xmlns="http://www.w3.org/2000/svg" xmlns:xlink="http://www.w3.org/1999/xlink" x="0px" y="0px"
	 viewBox="0 0 109.9 19.9" style="enable-background:new 0 0 109.9 19.9;" xml:space="preserve">
<style type="text/css">
	.st0{fill:#FFFFFF;}
</style>
<g>
	<path class="st0" d="M9.2,2.9v8c0,0.6-0.1,1.2-0.3,1.7c-0.2,0.5-0.4,1-0.8,1.3s-0.8,0.7-1.4,0.9c-0.6,0.2-1.3,0.3-2.1,0.3H0.5V13h4
		c0.5,0,0.9-0.1,1.2-0.2c0.3-0.1,0.6-0.3,0.8-0.4s0.3-0.4,0.4-0.7C7,11.5,7,11.2,7,10.9v-8H9.2z"/>
	<path class="st0" d="M12.5,15.1h-2.3l4.3-10.8c0.2-0.6,0.6-1,1-1.2c0.4-0.2,0.9-0.4,1.6-0.4c0.6,0,1.2,0.1,1.6,0.4s0.7,0.6,0.9,1.2
		l4.1,10.8h-2.4l-3.7-9.8C17.4,5,17.2,4.9,17,4.9c-0.3,0-0.5,0.1-0.6,0.4L12.5,15.1z"/>
	<path class="st0" d="M27.5,15.1h-2.1V5.4c0-0.8,0.2-1.4,0.7-1.9s1.1-0.7,2-0.7c0.8,0,1.4,0.2,1.9,0.6c0.4,0.4,0.8,1,1,1.7l3,7.8
		c0.1,0.2,0.1,0.3,0.3,0.4c0.1,0.1,0.3,0.1,0.4,0.1c0.2,0,0.3-0.1,0.5-0.2c0.1-0.1,0.2-0.3,0.2-0.5V5.4c0-0.8,0.2-1.4,0.7-1.9
		c0.4-0.5,1.1-0.7,2-0.7c0.8,0,1.4,0.2,1.9,0.6c0.4,0.4,0.8,1,1,1.7l3.8,10.1h-2.3l-3.6-9.8c-0.1-0.2-0.1-0.3-0.3-0.4
		S38.1,4.8,38,4.8c-0.2,0-0.3,0.1-0.4,0.2c-0.1,0.1-0.2,0.3-0.2,0.5v7.2c0,0.8-0.2,1.5-0.7,1.9c-0.5,0.5-1.1,0.7-2,0.7
		c-0.8,0-1.4-0.2-1.9-0.6c-0.4-0.4-0.8-1-1-1.7l-3-7.8c-0.1-0.2-0.1-0.3-0.3-0.4s-0.2-0.1-0.4-0.1c-0.2,0-0.3,0.1-0.5,0.2
		s-0.2,0.3-0.2,0.5V15.1z"/>
	<path class="st0" d="M56.1,2.9v2.1H50c-0.6,0-1.1,0.1-1.4,0.4c-0.3,0.3-0.4,0.6-0.4,1.1c0,1,0.6,1.4,1.9,1.4h6V10h-6
		c-1.2,0-1.9,0.5-1.9,1.5c0,0.5,0.2,0.9,0.5,1.1S49.4,13,50,13h6.2v2.1H50c-0.7,0-1.3-0.1-1.8-0.3c-0.5-0.2-0.9-0.4-1.3-0.7
		s-0.6-0.6-0.7-1.1c-0.2-0.4-0.2-0.8-0.2-1.3c0-0.7,0.2-1.3,0.5-1.7c0.3-0.5,0.7-0.8,1.3-1.1C46.5,8.5,46,7.6,46,6.3
		c0-0.5,0.1-0.9,0.2-1.3c0.2-0.4,0.4-0.8,0.7-1.1c0.3-0.3,0.8-0.5,1.3-0.7C48.7,3,49.3,2.9,50,2.9H56.1z"/>
	<path class="st0" d="M68.3,2.9v2.1h-6.2c-0.6,0-1,0.1-1.2,0.4c-0.3,0.3-0.4,0.6-0.4,1c0,0.2,0,0.4,0.1,0.5c0.1,0.2,0.2,0.3,0.3,0.5
		c0.1,0.1,0.3,0.2,0.6,0.3c0.2,0.1,0.5,0.1,0.9,0.1h2.9c0.8,0,1.5,0.1,2,0.3c0.5,0.2,0.9,0.5,1.3,0.8c0.3,0.3,0.5,0.7,0.6,1.2
		c0.1,0.4,0.2,0.9,0.2,1.3c0,0.5-0.1,1-0.2,1.4c-0.1,0.4-0.4,0.8-0.7,1.1c-0.3,0.3-0.7,0.6-1.2,0.7c-0.5,0.2-1.1,0.3-1.8,0.3h-6.8
		V13h6.9c0.6,0,1-0.1,1.3-0.4c0.3-0.3,0.4-0.6,0.4-1.1c0-0.2,0-0.4-0.1-0.6s-0.2-0.3-0.3-0.5c-0.1-0.1-0.3-0.2-0.6-0.3
		C65.9,10,65.6,10,65.2,10h-2.8c-0.8,0-1.5-0.1-2-0.3s-0.9-0.5-1.2-0.8c-0.3-0.3-0.5-0.7-0.6-1.1c-0.1-0.4-0.2-0.8-0.2-1.3
		c0-0.5,0.1-1,0.2-1.4s0.4-0.8,0.7-1.1c0.3-0.3,0.7-0.6,1.2-0.7c0.5-0.2,1.1-0.3,1.7-0.3H68.3z"/>
	<path class="st0" d="M73.7,2.9v5h6.2v-5h2.1v12.2h-2.1V10h-6.2v5.1h-2.1V2.9H73.7z"/>
	<path class="st0" d="M90.3,2.9c1.8,0,3.2,0.5,4.1,1.5c0.9,1,1.4,2.5,1.4,4.6c0,2.1-0.5,3.6-1.4,4.6c-0.9,1-2.3,1.5-4.1,1.5H86
		c-0.7,0-1-0.3-1-1V3.9c0-0.7,0.3-1,1-1H90.3z M87.2,12.8c0,0.1,0.1,0.2,0.2,0.2h2.9c1.2,0,2-0.3,2.6-0.9c0.5-0.6,0.8-1.6,0.8-3
		c0-1.4-0.3-2.4-0.8-3c-0.5-0.6-1.4-0.9-2.6-0.9h-2.9c-0.2,0-0.2,0.1-0.2,0.2V12.8z"/>
	<path class="st0" d="M105.9,2.9c1,0,1.7,0.2,2.2,0.7c0.5,0.5,0.7,1.1,0.7,2c0,0.7-0.2,1.3-0.5,1.7c-0.3,0.5-0.8,0.8-1.5,1.1
		l-6.6,2.8c-0.2,0.1-0.3,0.2-0.5,0.4s-0.2,0.3-0.2,0.5c0,0.2,0.1,0.4,0.2,0.6c0.1,0.1,0.4,0.2,0.7,0.2h8v2.1h-8.2
		c-1,0-1.7-0.2-2.2-0.7c-0.5-0.5-0.7-1.1-0.7-2c0-0.7,0.2-1.3,0.5-1.7s0.8-0.8,1.5-1.1l6.6-2.8c0.4-0.2,0.6-0.5,0.6-0.9
		c0-0.2-0.1-0.4-0.2-0.6c-0.2-0.1-0.4-0.2-0.7-0.2H98V2.9H105.9z"/>
</g>
</svg>
